<svg width="40" height="40" viewBox="0 0 40 40" fill="none" xmlns="http://www.w3.org/2000/svg">
    <mask id="mask0_3087_21388" style="mask-type:alpha" maskUnits="userSpaceOnUse" x="0" y="0"
        width="40" height="40">
        <rect width="40" height="40" rx="20" fill="#C4C4C4" />
    </mask>
    <g mask="url(#mask0_3087_21388)">
        <path d="M40 0H0V40H40V0Z" fill="#F0F1F3" />
        <path
            d="M20 25.5892C14.0353 25.5893 8.25205 27.6403 3.62 31.3981C2.30478 32.4903 1.093 33.7013 0 35.0159L0 40.0003H40V34.7081C38.8635 33.5304 37.6545 32.425 36.38 31.3981C31.7479 27.6403 25.9647 25.5893 20 25.5892Z"
            fill="#D2D8E0" />
        <path
            d="M20 22.0002C21.4834 22.0002 22.9334 21.5604 24.1668 20.7363C25.4001 19.9122 26.3614 18.7408 26.9291 17.3704C27.4968 15.9999 27.6453 14.4919 27.3559 13.0371C27.0665 11.5822 26.3522 10.2458 25.3033 9.19695C24.2544 8.14805 22.918 7.43375 21.4632 7.14436C20.0083 6.85497 18.5003 7.00349 17.1299 7.57115C15.7594 8.13881 14.5881 9.1001 13.764 10.3335C12.9399 11.5668 12.5 13.0169 12.5 14.5002C12.5 16.4894 13.2902 18.397 14.6967 19.8035C16.1032 21.2101 18.0109 22.0002 20 22.0002Z"
            fill="#D2D8E0" />
    </g>
</svg>
