<svg width="40" height="40" viewBox="0 0 40 40" fill="none" xmlns="http://www.w3.org/2000/svg">
    <rect width="40" height="40" rx="8" fill="#2A92FF" />
    <path
        d="M20.0156 16.2062C19.0813 16.2062 18.2063 16.5687 17.5437 17.2312C16.8844 17.8937 16.5188 18.7687 16.5188 19.703C16.5188 20.6374 16.8844 21.5124 17.5437 22.1749C18.2063 22.8343 19.0813 23.1999 20.0156 23.1999C20.95 23.1999 21.825 22.8343 22.4875 22.1749C23.1469 21.5124 23.5125 20.6374 23.5125 19.703C23.5125 18.7687 23.1469 17.8937 22.4875 17.2312C22.1639 16.9051 21.7788 16.6466 21.3544 16.4706C20.9301 16.2946 20.475 16.2047 20.0156 16.2062ZM32.9 23.5655L30.8563 21.8187C30.9531 21.2249 31.0031 20.6187 31.0031 20.0155C31.0031 19.4124 30.9531 18.803 30.8563 18.2124L32.9 16.4655C33.0544 16.3334 33.1649 16.1573 33.2168 15.9608C33.2687 15.7643 33.2596 15.5567 33.1906 15.3655L33.1625 15.2843C32.6 13.7114 31.7573 12.2535 30.675 10.9812L30.6187 10.9155C30.4873 10.761 30.3122 10.6499 30.1164 10.5969C29.9206 10.5439 29.7133 10.5515 29.5219 10.6187L26.9844 11.5218C26.0469 10.753 25.0031 10.1468 23.8719 9.7249L23.3813 7.07178C23.3442 6.87191 23.2473 6.68804 23.1033 6.54458C22.9593 6.40113 22.775 6.30489 22.575 6.26865L22.4906 6.25303C20.8656 5.95928 19.1531 5.95928 17.5281 6.25303L17.4438 6.26865C17.2437 6.30489 17.0595 6.40113 16.9155 6.54458C16.7715 6.68804 16.6745 6.87191 16.6375 7.07178L16.1438 9.7374C15.0232 10.1626 13.9794 10.7674 13.0531 11.528L10.4969 10.6187C10.3055 10.551 10.0981 10.5431 9.90217 10.5962C9.70625 10.6492 9.5311 10.7606 9.4 10.9155L9.34375 10.9812C8.26341 12.2549 7.42085 13.7124 6.85625 15.2843L6.82812 15.3655C6.6875 15.7562 6.80312 16.1937 7.11875 16.4655L9.1875 18.2312C9.09062 18.8187 9.04375 19.4187 9.04375 20.0124C9.04375 20.6124 9.09062 21.2124 9.1875 21.7937L7.125 23.5593C6.97061 23.6914 6.86011 23.8675 6.8082 24.064C6.75629 24.2605 6.76542 24.4681 6.83437 24.6593L6.8625 24.7405C7.42812 26.3124 8.2625 27.7655 9.35 29.0437L9.40625 29.1093C9.53767 29.2638 9.71282 29.3749 9.90863 29.4279C10.1044 29.4809 10.3117 29.4733 10.5031 29.4062L13.0594 28.4968C13.9906 29.2624 15.0281 29.8687 16.15 30.2874L16.6438 32.953C16.6808 33.1529 16.7777 33.3368 16.9217 33.4802C17.0657 33.6237 17.25 33.7199 17.45 33.7562L17.5344 33.7718C19.1754 34.0671 20.8559 34.0671 22.4969 33.7718L22.5812 33.7562C22.7813 33.7199 22.9655 33.6237 23.1095 33.4802C23.2535 33.3368 23.3505 33.1529 23.3875 32.953L23.8781 30.2999C25.0094 29.8749 26.0531 29.2718 26.9906 28.503L29.5281 29.4062C29.7195 29.4738 29.9269 29.4817 30.1228 29.4287C30.3188 29.3756 30.4939 29.2642 30.625 29.1093L30.6812 29.0437C31.7687 27.7593 32.6031 26.3124 33.1688 24.7405L33.1969 24.6593C33.3312 24.2718 33.2156 23.8374 32.9 23.5655ZM20.0156 25.1968C16.9812 25.1968 14.5219 22.7374 14.5219 19.703C14.5219 16.6687 16.9812 14.2093 20.0156 14.2093C23.05 14.2093 25.5094 16.6687 25.5094 19.703C25.5094 22.7374 23.05 25.1968 20.0156 25.1968Z"
        fill="white" />
</svg>
