<svg width="81" height="80" viewBox="0 0 81 80" fill="none" xmlns="http://www.w3.org/2000/svg">
    <g clip-path="url(#clip0_9220_42349)">
        <path
            d="M35.5906 12.5C35.5906 15.8152 34.2736 18.9946 31.9294 21.3388C29.5852 23.683 26.4058 25 23.0906 25C19.7754 25 16.596 23.683 14.2518 21.3388C11.9075 18.9946 10.5906 15.8152 10.5906 12.5C10.5906 9.18479 11.9075 6.00537 14.2518 3.66117C16.596 1.31696 19.7754 0 23.0906 0C26.4058 0 29.5852 1.31696 31.9294 3.66117C34.2736 6.00537 35.5906 9.18479 35.5906 12.5ZM56.7156 32.765C56.2467 32.5301 55.7158 32.4486 55.1981 32.5321C54.6803 32.6155 54.2019 32.8597 53.8306 33.23L35.2806 56.78L21.9806 42.92C21.5004 42.6003 20.9244 42.4565 20.3503 42.513C19.7762 42.5695 19.2393 42.8228 18.8306 43.23L0.600586 65V75C0.600586 76.3261 1.12737 77.5979 2.06505 78.5355C3.00273 79.4732 4.2745 80 5.60059 80H75.6006C76.2572 80 76.9074 79.8707 77.514 79.6194C78.1206 79.3681 78.6718 78.9998 79.1361 78.5355C79.6004 78.0712 79.9687 77.5201 80.22 76.9134C80.4713 76.3068 80.6006 75.6566 80.6006 75V52.5L56.7156 32.765Z"
            fill="#DAE0E6" />
    </g>
    <defs>
        <clipPath id="clip0_9220_42349">
            <rect width="80" height="80" fill="white" transform="translate(0.59082)" />
        </clipPath>
    </defs>
</svg>
