<svg width="40" height="40" viewBox="0 0 40 40" fill="none" xmlns="http://www.w3.org/2000/svg">
    <rect width="40" height="40" rx="8" fill="#2A92FF" />
    <path
        d="M27.071 12.929C25.6724 11.5306 23.8906 10.5783 21.9508 10.1926C20.011 9.8068 18.0004 10.0049 16.1733 10.7618C14.3461 11.5187 12.7843 12.8005 11.6856 14.4449C10.5868 16.0894 10.0004 18.0227 10.0004 20.0005C10.0004 21.9783 10.5868 23.9116 11.6856 25.5561C12.7843 27.2005 14.3461 28.4823 16.1733 29.2392C18.0004 29.9961 20.011 30.1942 21.9508 29.8084C23.8906 29.4227 25.6724 28.4704 27.071 27.072C27.9997 26.1434 28.7364 25.0409 29.239 23.8276C29.7417 22.6143 30.0004 21.3138 30.0004 20.0005C30.0004 18.6872 29.7417 17.3867 29.239 16.1734C28.7364 14.96 27.9997 13.8576 27.071 12.929ZM21.3 24.348C21.3 24.694 21.1626 25.0258 20.9179 25.2704C20.6733 25.5151 20.3415 25.6525 19.9955 25.6525C19.6495 25.6525 19.3177 25.5151 19.0731 25.2704C18.8284 25.0258 18.691 24.694 18.691 24.348V19.13C18.691 18.784 18.8284 18.4522 19.0731 18.2076C19.3177 17.9629 19.6495 17.8255 19.9955 17.8255C20.3415 17.8255 20.6733 17.9629 20.9179 18.2076C21.1626 18.4522 21.3 18.784 21.3 19.13V24.348ZM19.977 16.9C19.816 16.9103 19.6547 16.887 19.5032 16.8316C19.3517 16.7762 19.2134 16.6899 19.0971 16.5782C18.9808 16.4665 18.8889 16.3318 18.8275 16.1826C18.766 16.0335 18.7362 15.8732 18.74 15.712C18.7343 15.5484 18.7632 15.3854 18.8248 15.2338C18.8864 15.0821 18.9794 14.9452 19.0976 14.8319C19.2157 14.7186 19.3565 14.6316 19.5106 14.5765C19.6648 14.5213 19.8288 14.4994 19.992 14.512C20.1589 14.4963 20.3273 14.5158 20.4863 14.5692C20.6452 14.6226 20.7912 14.7087 20.9148 14.822C21.0384 14.9353 21.137 15.0732 21.204 15.2269C21.271 15.3806 21.3051 15.5466 21.3041 15.7143C21.303 15.882 21.2669 16.0475 21.1979 16.2004C21.1289 16.3532 21.0287 16.4899 20.9036 16.6016C20.7786 16.7133 20.6315 16.7976 20.4719 16.849C20.3123 16.9004 20.1437 16.9178 19.977 16.9Z"
        fill="white" />
</svg>
