<svg xmlns="http://www.w3.org/2000/svg" width="22" height="22" viewBox="0 0 22 22">
    <rect class="a" width="22" height="22" fill="none"/>
    <path class="b" fill="#2c333a"
          d="M-5038.692-3276.491h-1.228c0-.038,0-.077,0-.116v-1.177a5.177,5.177,0,0,0-5.177-5.177,5.177,5.177,0,0,0-5.178,5.177v1.177c0,.039,0,.077,0,.116h-1.227a1.485,1.485,0,0,0-1.485,1.485v8.56a1.484,1.484,0,0,0,1.485,1.485h12.806a1.484,1.484,0,0,0,1.485-1.485v-8.56A1.485,1.485,0,0,0-5038.692-3276.491Zm-5.673,6.16v1.981a.73.73,0,0,1-.73.73.73.73,0,0,1-.729-.73v-1.981a1.748,1.748,0,0,1-1.02-1.59,1.749,1.749,0,0,1,1.75-1.75,1.75,1.75,0,0,1,1.75,1.75A1.749,1.749,0,0,1-5044.365-3270.331Zm2.845-6.276c0,.039,0,.077,0,.116h-7.143c0-.038,0-.077,0-.116v-1.177a3.579,3.579,0,0,1,3.574-3.574,3.578,3.578,0,0,1,3.575,3.574Z"
          transform="translate(5055.983 3284.96)"/>
</svg>