<svg width="40" height="40" viewBox="0 0 40 40" fill="none" xmlns="http://www.w3.org/2000/svg">
    <rect width="40" height="40" rx="8" fill="#FA6C1D" />
    <path fill-rule="evenodd" clip-rule="evenodd"
        d="M22.2387 19.2017C21.6009 19.4662 20.916 19.5979 20.2256 19.5886C19.5351 19.5979 18.85 19.4663 18.212 19.2019C17.5741 18.9374 16.9968 18.5456 16.5154 18.0505C16.0204 17.5692 15.6286 16.9921 15.3642 16.3544C15.0997 15.7167 14.9681 15.0317 14.9773 14.3414C14.9681 13.651 15.0998 12.9661 15.3643 12.3284C15.6287 11.6906 16.0204 11.1135 16.5154 10.6323C17.4994 9.64901 18.8335 9.09668 20.2245 9.09668C21.6156 9.09668 22.9497 9.64901 23.9336 10.6323C24.4286 11.1135 24.8203 11.6906 25.0848 12.3284C25.3493 12.9661 25.481 13.651 25.4718 14.3414C25.4812 15.0316 25.3497 15.7165 25.0854 16.3543C24.8211 16.992 24.4296 17.5692 23.9347 18.0505C23.4535 18.5455 22.8764 18.9373 22.2387 19.2017ZM29.2334 24.4716C29.3168 24.927 29.3758 25.3866 29.4101 25.8483V25.8527C29.4385 26.2672 29.4537 26.7036 29.4537 27.1399C29.4765 27.6462 29.3925 28.1515 29.2074 28.6232C29.0223 29.0949 28.7401 29.5224 28.3792 29.8781C27.6258 30.5671 26.6305 30.9302 25.6105 30.8883H15.117C14.0966 30.9304 13.1009 30.5672 12.3472 29.8781C11.9863 29.5224 11.7042 29.0948 11.5191 28.6231C11.334 28.1514 11.2501 27.6461 11.2726 27.1399C11.2726 26.7025 11.2868 26.2694 11.3163 25.8527C11.3504 25.3905 11.4094 24.9306 11.493 24.4748C11.5753 24.0065 11.6883 23.544 11.8312 23.0905C11.9757 22.64 12.1666 22.2056 12.4006 21.7945C12.6308 21.3822 12.9196 21.0055 13.2581 20.6763C13.6149 20.3407 14.0336 20.0776 14.4908 19.9017C14.9928 19.7081 15.527 19.6115 16.065 19.617C16.3789 19.6507 16.6758 19.7767 16.9181 19.9792C17.0767 20.0831 17.2511 20.1952 17.4375 20.3149C17.5562 20.3912 17.6798 20.4706 17.8072 20.553C18.1677 20.7686 18.5536 20.9386 18.9559 21.0592C19.8689 21.3621 20.8553 21.3621 21.7683 21.0592C22.171 20.9385 22.5572 20.7685 22.9181 20.553C23.2519 20.3403 23.5519 20.1472 23.8072 19.9803C24.0495 19.778 24.3464 19.6519 24.6603 19.6181C25.1983 19.6128 25.7324 19.7095 26.2345 19.9028C26.6916 20.0788 27.1103 20.3418 27.4672 20.6774C27.8061 21.0065 28.0953 21.3832 28.3257 21.7956C28.5596 22.2053 28.7504 22.6382 28.8952 23.0872C29.0381 23.5407 29.1511 24.0032 29.2334 24.4716Z"
        fill="white" />
</svg>
